<?xml version="1.0" encoding="UTF-8"?>
<svg width="100px" height="100px" viewBox="0 0 100 100" version="1.1" xmlns="http://www.w3.org/2000/svg" xmlns:xlink="http://www.w3.org/1999/xlink">
    <!-- Generator: Sketch 50.2 (55047) - http://www.bohemiancoding.com/sketch -->
    <title>noun_4585_cc</title>
    <desc>Created with Sketch.</desc>
    <defs></defs>
    <g id="Page-1" stroke="none" stroke-width="1" fill="none" fill-rule="evenodd">
        <g id="noun_4585_cc" fill="#000000" fill-rule="nonzero">
            <path d="M61.912,76.213 C51.732,76.213 42.163,72.249 34.967,65.051 C27.77,57.855 23.805,48.284 23.805,38.107 C23.805,27.928 27.77,18.359 34.967,11.162 C42.162,3.963 51.73,0 61.911,0 C72.09,0 81.659,3.963 88.855,11.162 C103.712,26.017 103.712,50.193 88.857,65.051 C81.66,72.25 72.091,76.213 61.912,76.213 Z M61.912,9.927 C54.384,9.927 47.307,12.857 41.986,18.179 C30.998,29.167 30.998,47.046 41.986,58.034 C47.309,63.355 54.384,66.286 61.913,66.286 C69.44,66.286 76.517,63.355 81.84,58.034 C87.162,52.711 90.094,45.633 90.094,38.105 C90.094,30.577 87.162,23.502 81.839,18.178 C76.516,12.858 69.438,9.927 61.912,9.927 Z" id="Shape"></path>
            <polygon id="Shape" points="7.742 99.988 0 92.248 27.928 64.319 35.67 72.06"></polygon>
        </g>
    </g>
</svg>